{
    "asset" : {
        "generator" : "Khronos glTF Blender I/O v1.5.17",
        "version" : "2.0"
    },
    "scene" : 0,
    "scenes" : [
        {
            "name" : "Scene",
            "nodes" : [
                0
            ]
        }
    ],
    "nodes" : [
        {
            "mesh" : 0,
            "name" : "Esfera.002",
            "rotation" : [
                0,
                0.7204247117042542,
                0,
                0.6935332417488098
            ],
            "scale" : [
                0.06559734791517258,
                0.21633853018283844,
                0.22024817764759064
            ],
            "translation" : [
                -2.171018600463867,
                0.7187971472740173,
                9.87993335723877
            ]
        }
    ],
    "materials" : [
        {
            "alphaMode" : "BLEND",
            "doubleSided" : true,
            "emissiveFactor" : [
                1,
                1,
                1
            ],
            "name" : "Material.021",
            "pbrMetallicRoughness" : {
                "baseColorTexture" : {
                    "index" : 0
                },
                "metallicFactor" : 0.40506330132484436,
                "roughnessFactor" : 0.4303797483444214
            }
        }
    ],
    "meshes" : [
        {
            "name" : "Esfera.002",
            "primitives" : [
                {
                    "attributes" : {
                        "POSITION" : 0,
                        "NORMAL" : 1,
                        "TEXCOORD_0" : 2
                    },
                    "indices" : 3,
                    "material" : 0
                }
            ]
        }
    ],
    "textures" : [
        {
            "sampler" : 0,
            "source" : 0
        }
    ],
    "images" : [
        {
            "bufferView" : 4,
            "mimeType" : "image/jpeg",
            "name" : "texturaojannzos"
        }
    ],
    "accessors" : [
        {
            "bufferView" : 0,
            "componentType" : 5126,
            "count" : 1988,
            "max" : [
                1.7569494247436523,
                1.1065340042114258,
                4.462943077087402
            ],
            "min" : [
                -0.5875864028930664,
                -1.3744280338287354,
                -1.4262521266937256
            ],
            "type" : "VEC3"
        },
        {
            "bufferView" : 1,
            "componentType" : 5126,
            "count" : 1988,
            "type" : "VEC3"
        },
        {
            "bufferView" : 2,
            "componentType" : 5126,
            "count" : 1988,
            "type" : "VEC2"
        },
        {
            "bufferView" : 3,
            "componentType" : 5123,
            "count" : 2880,
            "type" : "SCALAR"
        }
    ],
    "bufferViews" : [
        {
            "buffer" : 0,
            "byteLength" : 23856,
            "byteOffset" : 0
        },
        {
            "buffer" : 0,
            "byteLength" : 23856,
            "byteOffset" : 23856
        },
        {
            "buffer" : 0,
            "byteLength" : 15904,
            "byteOffset" : 47712
        },
        {
            "buffer" : 0,
            "byteLength" : 5760,
            "byteOffset" : 63616
        },
        {
            "buffer" : 0,
            "byteLength" : 25148,
            "byteOffset" : 69376
        }
    ],
    "samplers" : [
        {
            "magFilter" : 9729,
            "minFilter" : 9987
        }
    ],
    "buffers" : [
        {
            "byteLength" : 94524,
            "uri" : "data:application/octet-stream;base64,"
        }
    ]
}
