{
    "asset" : {
        "generator" : "Khronos glTF Blender I/O v1.5.17",
        "version" : "2.0"
    },
    "extensionsUsed" : [
        "KHR_materials_transmission"
    ],
    "scene" : 0,
    "scenes" : [
        {
            "name" : "Scene",
            "nodes" : [
                0
            ]
        }
    ],
    "nodes" : [
        {
            "mesh" : 0,
            "name" : "Ground_Cape_Plane",
            "rotation" : [
                0.7071068286895752,
                0,
                0,
                0.7071067094802856
            ],
            "scale" : [
                8.622063636779785,
                13.56688117980957,
                6.387930393218994
            ],
            "translation" : [
                23.467453002929688,
                0,
                0
            ]
        }
    ],
    "materials" : [
        {
            "alphaMode" : "BLEND",
            "doubleSided" : true,
            "emissiveFactor" : [
                1,
                1,
                1
            ],
            "emissiveTexture" : {
                "index" : 0
            },
            "extensions" : {
                "KHR_materials_transmission" : {
                    "transmissionFactor" : 1
                }
            },
            "name" : "Cloth.001",
            "pbrMetallicRoughness" : {
                "baseColorFactor" : [
                    0.800000011920929,
                    0.800000011920929,
                    0.800000011920929,
                    1
                ],
                "metallicFactor" : 0.2150000035762787,
                "roughnessFactor" : 0.5440000295639038
            }
        }
    ],
    "meshes" : [
        {
            "name" : "Ground_Cape_Plane",
            "primitives" : [
                {
                    "attributes" : {
                        "POSITION" : 0,
                        "NORMAL" : 1,
                        "TEXCOORD_0" : 2
                    },
                    "indices" : 3,
                    "material" : 0
                }
            ]
        }
    ],
    "textures" : [
        {
            "sampler" : 0,
            "source" : 0
        }
    ],
    "images" : [
        {
            "bufferView" : 4,
            "mimeType" : "image/jpeg",
            "name" : "PicsArt_03-18-12.14.37"
        }
    ],
    "accessors" : [
        {
            "bufferView" : 0,
            "componentType" : 5126,
            "count" : 47693,
            "max" : [
                0.582243025302887,
                0.47043800354003906,
                -0.00032500000088475645
            ],
            "min" : [
                -0.5487629771232605,
                -0.21456299722194672,
                -1.7129149436950684
            ],
            "type" : "VEC3"
        },
        {
            "bufferView" : 1,
            "componentType" : 5126,
            "count" : 47693,
            "type" : "VEC3"
        },
        {
            "bufferView" : 2,
            "componentType" : 5126,
            "count" : 47693,
            "type" : "VEC2"
        },
        {
            "bufferView" : 3,
            "componentType" : 5123,
            "count" : 283542,
            "type" : "SCALAR"
        }
    ],
    "bufferViews" : [
        {
            "buffer" : 0,
            "byteLength" : 572316,
            "byteOffset" : 0
        },
        {
            "buffer" : 0,
            "byteLength" : 572316,
            "byteOffset" : 572316
        },
        {
            "buffer" : 0,
            "byteLength" : 381544,
            "byteOffset" : 1144632
        },
        {
            "buffer" : 0,
            "byteLength" : 567084,
            "byteOffset" : 1526176
        },
        {
            "buffer" : 0,
            "byteLength" : 288820,
            "byteOffset" : 2093260
        }
    ],
    "samplers" : [
        {
            "magFilter" : 9729,
            "minFilter" : 9987
        }
    ],
    "buffers" : [
        {
            "byteLength" : 2382080,
            "uri" : "data:application/octet-stream;base64,"
        }
    ]
}
